<svg width="152" height="39" viewBox="0 0 152 39" fill="none" xmlns="http://www.w3.org/2000/svg">
<path d="M7.26 15.34C9.18 15.34 10.76 14.6 11.98 13.18L10.42 11.32C9.64 12.18 8.64 12.78 7.38 12.78C5.02 12.78 3.52 10.86 3.52 7.62C3.52 4.46 5.2 2.54 7.42 2.54C8.56 2.54 9.4 3.04 10.16 3.78L11.72 1.88C10.76 0.879999 9.26 0 7.38 0C3.62 0 0.5 2.84 0.5 7.72C0.5 12.66 3.52 15.34 7.26 15.34Z" fill="white"/>
<path d="M16.4353 15.06H19.3753V9.66L23.8353 0.26H20.7553L19.2953 3.88C18.8553 4.98 18.4153 6.02 17.9553 7.16H17.8753C17.4353 6.02 17.0353 4.98 16.5953 3.88L15.1153 0.26H11.9753L16.4353 9.66V15.06Z" fill="white"/>
<path d="M25.5369 15.06H30.8169C34.0569 15.06 36.5369 13.68 36.5369 10.7C36.5369 8.72 35.3569 7.58 33.7769 7.2V7.12C35.0369 6.66 35.7769 5.28 35.7769 3.92C35.7769 1.16 33.4569 0.26 30.4169 0.26H25.5369V15.06ZM28.4969 6.28V2.54H30.2569C32.0369 2.54 32.8969 3.04 32.8969 4.34C32.8969 5.54 32.0969 6.28 30.2169 6.28H28.4969ZM28.4969 12.78V8.48H30.5569C32.5969 8.48 33.6569 9.1 33.6569 10.54C33.6569 12.06 32.5569 12.78 30.5569 12.78H28.4969Z" fill="white"/>
<path d="M39.1502 15.06H48.4502V12.58H42.1102V8.64H47.2902V6.14H42.1102V2.72H48.2302V0.26H39.1502V15.06Z" fill="white"/>
<path d="M51.4548 15.06H54.4148V9.48H56.5948C59.6948 9.48 62.1548 8.04 62.1548 4.74C62.1548 1.34 59.6948 0.26 56.5948 0.26H51.4548V15.06ZM54.4148 7.14V2.62H56.3148C58.2348 2.62 59.2748 3.16 59.2748 4.74C59.2748 6.32 58.2348 7.14 56.3148 7.14H54.4148ZM59.4948 15.06H62.7948L58.1148 6.86L56.0548 8.72L59.4948 15.06Z" fill="white"/>
<path d="M69.0975 15.34C72.4975 15.34 74.5175 13.28 74.5175 10.86C74.5175 8.74 73.3375 7.58 71.5575 6.84L69.6175 6.04C68.3575 5.54 67.2975 5.14 67.2975 4.08C67.2975 3.12 68.1175 2.54 69.4175 2.54C70.6375 2.54 71.6175 2.98 72.5775 3.76L74.0575 1.9C72.8575 0.68 71.1375 0 69.4175 0C66.4375 0 64.2975 1.86 64.2975 4.28C64.2975 6.42 65.8175 7.64 67.2975 8.24L69.2775 9.08C70.5975 9.64 71.4975 10 71.4975 11.1C71.4975 12.12 70.6975 12.78 69.1575 12.78C67.8575 12.78 66.4375 12.14 65.3975 11.16L63.6975 13.2C65.1375 14.58 67.0975 15.34 69.0975 15.34Z" fill="white"/>
<path d="M77.158 15.06H86.458V12.58H80.118V8.64H85.298V6.14H80.118V2.72H86.238V0.26H77.158V15.06Z" fill="white"/>
<path d="M95.4827 15.34C97.4027 15.34 98.9827 14.6 100.203 13.18L98.6427 11.32C97.8627 12.18 96.8627 12.78 95.6027 12.78C93.2427 12.78 91.7427 10.86 91.7427 7.62C91.7427 4.46 93.4227 2.54 95.6427 2.54C96.7827 2.54 97.6227 3.04 98.3827 3.78L99.9427 1.88C98.9827 0.879999 97.4827 0 95.6027 0C91.8427 0 88.7227 2.84 88.7227 7.72C88.7227 12.66 91.7427 15.34 95.4827 15.34Z" fill="white"/>
<path d="M106.139 15.06H116.059V12.58H112.819C112.119 12.58 111.139 12.68 110.399 12.76C113.039 10 115.379 7.38 115.379 4.88C115.379 2.14 113.499 0.38 110.719 0.38C108.699 0.38 107.359 1.16 105.999 2.62L107.619 4.22C108.379 3.42 109.239 2.68 110.339 2.68C111.759 2.68 112.539 3.56 112.539 5.02C112.539 7.18 109.999 9.68 106.139 13.38V15.06Z" fill="white"/>
<path d="M122.996 15.34C126.016 15.34 127.996 12.7 127.996 7.8C127.996 2.92 126.016 0.38 122.996 0.38C119.936 0.38 117.976 2.9 117.976 7.8C117.976 12.7 119.936 15.34 122.996 15.34ZM122.996 13.04C121.716 13.04 120.756 11.82 120.756 7.8C120.756 3.78 121.716 2.66 122.996 2.66C124.276 2.66 125.216 3.78 125.216 7.8C125.216 11.82 124.276 13.04 122.996 13.04Z" fill="white"/>
<path d="M129.733 15.06H139.653V12.58H136.413C135.713 12.58 134.733 12.68 133.993 12.76C136.633 10 138.973 7.38 138.973 4.88C138.973 2.14 137.093 0.38 134.313 0.38C132.293 0.38 130.953 1.16 129.593 2.62L131.213 4.22C131.973 3.42 132.833 2.68 133.933 2.68C135.353 2.68 136.133 3.56 136.133 5.02C136.133 7.18 133.593 9.68 129.733 13.38V15.06Z" fill="white"/>
<path d="M146.15 15.34C148.99 15.34 151.37 13.82 151.37 11.16C151.37 9.28 150.09 8.06 148.41 7.6V7.52C149.97 6.88 150.87 5.8 150.87 4.24C150.87 1.78 148.93 0.38 146.07 0.38C144.35 0.38 142.93 1.1 141.65 2.2L143.15 4.02C144.03 3.2 144.89 2.68 145.95 2.68C147.21 2.68 147.93 3.34 147.93 4.46C147.93 5.7 147.05 6.6 144.33 6.6V8.72C147.55 8.72 148.41 9.6 148.41 10.98C148.41 12.24 147.39 12.96 145.87 12.96C144.53 12.96 143.47 12.28 142.59 11.42L141.19 13.28C142.23 14.48 143.81 15.34 146.15 15.34Z" fill="white"/>
<path d="M0.56 21.08V22.56H18.34V21.08H0.56ZM0.68 36.84V38.46H18.2V36.84H0.68ZM2.16 23.22V24.6H16.7V23.22H2.16ZM2.86 30.88V32.16H15.76V30.88H2.86ZM2.64 34.78V36.2H16.44V34.78H2.64ZM0.76 28.8V31.82H2.9V30.3H15.84V31.82H18.1V28.8H0.76ZM8.12 20.06V24.1H10.54V20.06H8.12ZM8.12 33.54V37.64H10.54V33.54H8.12ZM5.1 26.36H13.72V27.06H5.1V26.36ZM2.88 25.18V28.22H16.08V25.18H2.88ZM11.22 32.24C12.6 32.92 14.26 34.08 15.14 34.86L16.56 33.72C15.66 32.96 14 31.88 12.62 31.22L11.22 32.24ZM3.66 34.5C3.66 34.16 4.74 33.72 4.74 33.72V33.7C5.94 33.38 7.34 32.72 8.6 31.88L6.96 31.32C5.98 32.06 4.66 32.58 4.24 32.74C3.84 32.88 3.48 32.96 3.16 32.98C3.34 33.4 3.58 34.16 3.66 34.5ZM3.66 34.5C4.3 34.3 5.26 34.28 14.48 34.06C14.38 33.74 14.28 33.2 14.24 32.82L4.62 32.94L3.66 33.44V34.5Z" fill="white"/>
<path d="M29.46 23.82V24.92H33.28V23.82H29.46ZM29.46 25.38V26.48H33.28V25.38H29.46ZM26.66 34.54V35.98H36.54V34.54H26.66ZM28.88 22.06V23.32H33.68V22.06H28.88ZM30.82 28.1H31.82V28.96H30.82V28.1ZM29.44 27.02V30.04H33.28V27.02H29.44ZM26.9 32.54V33.88H37.04V30.56H25.62V31.9H34.82V32.54H26.9ZM26.22 32.54C25.98 33.68 25.66 35.02 25.32 35.98H27.56C27.84 35.06 28.16 33.74 28.42 32.54H26.22ZM35.78 34.54L35.76 34.78C35.54 36.1 35.26 36.8 34.94 37.02C34.72 37.16 34.48 37.18 34.08 37.18C33.56 37.18 32.24 37.16 31.04 37.06C31.38 37.54 31.64 38.28 31.68 38.8C32.94 38.86 34.16 38.86 34.82 38.84C35.62 38.82 36.18 38.72 36.68 38.32C37.22 37.88 37.58 37 37.88 35.38C37.98 35.1 38.02 34.54 38.02 34.54H35.78ZM20.3 21.94C21.3 22.56 22.56 23.48 23.12 24.16L24.58 22.36C23.94 21.7 22.66 20.86 21.66 20.34L20.3 21.94ZM19.88 27.26C20.88 27.8 22.2 28.7 22.78 29.3L24.16 27.48C23.52 26.86 22.2 26.08 21.2 25.6L19.88 27.26ZM20.32 37.42L22.46 38.64C23.26 36.68 24.08 34.34 24.74 32.2L22.84 30.98C22.08 33.32 21.06 35.86 20.32 37.42ZM27.32 24.84C27.68 25.54 28.04 26.46 28.18 27.04L29.18 26.58C29.08 26.04 28.68 25.16 28.3 24.5L27.32 24.84ZM27.48 27.54C27.74 28.22 27.96 29.1 28.02 29.68L29.02 29.24C28.96 28.68 28.7 27.84 28.42 27.2L27.48 27.54ZM24.54 27.56C24.42 28.36 24.24 29.18 23.88 29.82C24.16 29.98 24.64 30.32 24.86 30.54C25.24 29.86 25.52 28.82 25.68 27.84L24.54 27.56ZM24.52 24.32C24.52 24.14 25.26 23.82 25.26 23.82V23.8C26 22.98 26.78 21.8 27.24 20.72L25.92 20.26C25.62 21.34 24.94 22.54 24.7 22.82C24.5 23.12 24.32 23.34 24.06 23.38C24.22 23.64 24.46 24.12 24.52 24.32ZM24.52 24.32C24.82 24.22 25.32 24.12 27.28 24C27.3 23.7 27.4 23.2 27.5 22.86L25.26 22.96L24.48 23.34L24.52 24.32ZM24.6 27.02C24.6 26.82 25.48 26.5 25.48 26.5V26.46C26.64 25.4 27.8 23.92 28.6 22.54L27.36 21.98C26.7 23.42 25.5 24.96 25.1 25.34C24.74 25.74 24.48 26 24.16 26.06C24.32 26.32 24.56 26.82 24.6 27.02ZM24.6 27.02C24.96 26.88 25.52 26.74 28.5 26.36C28.38 26.1 28.28 25.6 28.22 25.28L25.22 25.62L24.52 26L24.6 27.02ZM25.92 27.82C26.12 28.58 26.26 29.54 26.28 30.16L27.36 29.8C27.34 29.2 27.18 28.28 26.96 27.56L25.92 27.82ZM30.16 20.64C30.42 21.14 30.72 21.82 30.82 22.26L32.44 21.86C32.3 21.46 31.98 20.78 31.72 20.32L30.16 20.64ZM36.82 24.86C37.18 25.56 37.54 26.48 37.68 27.06L38.7 26.64C38.56 26.08 38.16 25.18 37.78 24.5L36.82 24.86ZM36.94 27.54C37.26 28.34 37.54 29.4 37.6 30.08L38.62 29.62C38.52 28.98 38.22 27.96 37.88 27.18L36.94 27.54ZM34.02 27.48C33.9 28.28 33.72 29.12 33.36 29.74C33.66 29.92 34.14 30.24 34.36 30.48C34.72 29.78 35.02 28.74 35.18 27.78L34.02 27.48ZM34.02 24.34C34.02 24.14 34.74 23.82 34.74 23.82V23.8C35.5 22.98 36.28 21.8 36.72 20.74L35.42 20.26C35.1 21.36 34.42 22.54 34.2 22.82C33.98 23.14 33.8 23.34 33.56 23.38C33.72 23.64 33.94 24.14 34.02 24.34ZM34.02 24.34C34.3 24.22 34.8 24.14 36.78 24C36.78 23.72 36.86 23.22 36.96 22.86L34.74 22.96L33.96 23.36L34.02 24.34ZM34.1 27.04C34.1 26.82 34.96 26.5 34.96 26.5V26.46C36.14 25.4 37.28 23.94 38.08 22.54L36.84 22C36.18 23.44 34.98 24.98 34.6 25.34C34.24 25.74 33.98 26 33.64 26.06C33.8 26.32 34.04 26.82 34.1 27.04ZM34.1 27.04C34.44 26.88 35.02 26.76 37.98 26.36C37.88 26.1 37.76 25.62 37.72 25.28L34.7 25.62L34 26L34.1 27.04ZM35.34 27.86C35.56 28.66 35.72 29.72 35.72 30.38L36.82 30.02C36.82 29.38 36.62 28.38 36.38 27.58L35.34 27.86Z" fill="white"/>
<path d="M45.16 30.96H53.86V31.82H45.16V30.96ZM45.16 33.18H53.86V34.06H45.16V33.18ZM45.16 28.76H53.86V29.6H45.16V28.76ZM42.84 27.32V35.48H56.28V27.32H42.84ZM51 36.46C52.98 37.2 55.04 38.18 56.2 38.84L58.34 37.56C56.98 36.88 54.64 35.92 52.58 35.2L51 36.46ZM46.1 35.28C44.74 36.06 42.36 36.76 40.24 37.14C40.78 37.56 41.6 38.44 42.02 38.9C44.06 38.34 46.66 37.34 48.3 36.28L46.1 35.28ZM48.42 21.3V23.04H56.52V21.3H48.42ZM48.58 19.96C48.14 21.32 47.3 22.66 46.24 23.54C46.74 23.82 47.62 24.4 48.02 24.74C49.1 23.74 50.12 22.1 50.68 20.44L48.58 19.96ZM50.62 22.64V23.34C50.62 24.14 50.02 25.12 45.1 25.5C45.52 25.94 46.12 26.76 46.34 27.3C52 26.66 52.8 24.9 52.8 23.44V22.64H50.62ZM52.6 23.44L50.92 23.78C52.12 25.8 54.3 26.9 57.42 27.28C57.68 26.68 58.26 25.82 58.72 25.36C55.84 25.22 53.64 24.64 52.6 23.44ZM40.66 21.06V22.82H45.8V21.06H40.66ZM40.22 24.16V25.98H46.28V24.16H40.22ZM55.68 21.3V21.58C55.36 22.44 54.8 23.5 54.34 24.18L56.18 24.88C56.82 24.08 57.52 22.82 58.02 21.7L56.38 21.2L56.04 21.3H55.68Z" fill="white"/>
<path d="M60.96 22.24V26.72H63.4V24.46H75.36V26.72H77.92V22.24H60.96ZM72.48 26.24C71.84 33.46 68.64 35.76 60.6 36.48C61.1 37.1 61.86 38.28 62.08 38.92C70.54 37.74 74.2 34.82 75.42 26.42L72.48 26.24ZM60.58 28.04V30.32H78.28V28.04H60.58ZM67.38 20.48C67.8 21.42 68.28 22.68 68.48 23.42L71.32 22.7C71.08 21.96 70.54 20.76 70.1 19.86L67.38 20.48ZM62.86 32.84C67.48 34.3 73.54 36.94 76.44 38.88L78.2 36.78C75.02 34.8 68.84 32.36 64.44 31.06L62.86 32.84ZM62.86 32.84L65.9 33.04C67.14 31.18 68.84 28.14 69.84 25.46L67.04 24.96C66.12 27.6 64.34 30.8 62.86 32.84Z" fill="white"/>
<path d="M80.54 25.46V27.94H98.34V25.46H80.54ZM90.8 26.46L88.38 27.02C89.9 32.52 92.4 36.66 96.98 38.8C97.38 38.1 98.18 37.06 98.78 36.52C94.54 34.84 92 31.04 90.8 26.46ZM88.04 20.08C87.98 25.5 88.34 33.1 80.14 36.76C80.84 37.28 81.58 38.14 81.96 38.8C90.54 34.66 90.58 26.18 90.68 20.08H88.04Z" fill="white"/>
<path d="M104.44 27.34H114.26V29.86H104.44V27.34ZM102.44 25.86V31.32H116.4V25.86H102.44ZM105.88 23.6V25.16H112.94V23.6H105.88ZM108.34 26.36V30.58H110.28V26.36H108.34ZM105.14 27.78C105.48 28.46 105.76 29.4 105.84 30L107.6 29.48C107.48 28.88 107.16 28 106.8 27.32L105.14 27.78ZM111.76 27.24C111.6 27.9 111.24 28.88 110.94 29.54L112.58 29.98C112.9 29.42 113.32 28.58 113.74 27.72L111.76 27.24ZM103.54 31.98V38.86H105.9V33.54H112.92V38.78H115.38V31.98H103.54ZM104.9 34.34V35.92H113.94V34.34H104.9ZM104.9 36.74V38.3H113.94V36.74H104.9ZM109 19.9C107.18 22.22 103.62 23.9 99.92 24.8C100.32 25.22 100.94 26.18 101.18 26.66C105.08 25.48 108.9 23.5 111.12 20.68L109 19.9ZM110.58 20.82L108.8 21.54C110.86 23.78 114.28 25.62 117.64 26.48C117.98 25.94 118.66 25.08 119.16 24.66C115.82 23.98 112.36 22.54 110.58 20.82Z" fill="white"/>
</svg>
