<svg width="154" height="40" viewBox="0 0 154 40" fill="none" xmlns="http://www.w3.org/2000/svg">
<path d="M32.5669 5.95077L33.3892 5.05275C30.1109 2.12064 25.8696 0.25967 21.1847 0V5.50717C21.9746 6.27536 23.7598 6.82716 26.2483 6.82716C29.0289 6.82716 31.7879 6.15634 32.5778 5.95077H32.5669Z" fill="white"/>
<path d="M8.90452 32.5886L6.67568 34.9473C9.96484 37.8794 14.2061 39.7295 18.891 40V38.0092C14.0114 33.1079 10.495 32.5778 9.20747 32.5778H8.91534L8.90452 32.5886Z" fill="white"/>
<path d="M28.8775 33.4974C24.1601 33.4974 21.7474 36.8623 21.1306 37.8902L21.1739 40C26.0644 39.7295 30.4896 37.7279 33.822 34.5794L33.2919 34.363C31.7447 33.7896 30.2516 33.4974 28.8666 33.4974H28.8775Z" fill="white"/>
<path d="M33.6056 24.2467C32.4804 27.0165 33.6705 30.6194 34.2332 32.0476L35.3909 32.8699C38.0957 29.6565 39.7944 25.5991 40.0433 21.1415H36.9381C35.3476 21.7798 34.1791 22.8293 33.5948 24.2467H33.6056Z" fill="white"/>
<path d="M11.4904 6.17798C14.8012 6.17798 17.7333 5.34487 18.891 4.97701V0C14.2061 0.25967 9.96484 2.12064 6.67568 5.05275L7.38978 5.76684C8.51501 6.00487 9.95402 6.1888 11.4904 6.1888V6.17798Z" fill="white"/>
<path d="M5.50717 7.06519L5.06356 6.66486C2.12064 9.9432 0.25967 14.1845 0 18.8585H4.63078C8.02813 14.0222 5.60454 7.3465 5.50717 7.06519Z" fill="white"/>
<path d="M4.53341 21.1415H0C0.27049 25.8155 2.12064 30.0568 5.05275 33.3351L7.13011 31.2578C7.13011 26.9949 5.26914 22.6778 4.52259 21.1415H4.53341Z" fill="white"/>
<path d="M9.20747 18.8585C12.3019 17.2031 12.1937 14.5523 11.9989 13.492L8.38518 9.96484C8.72058 12.3019 8.77468 15.7209 7.09765 18.8585H9.20747Z" fill="white"/>
<path d="M9.87828 8.24452L13.3622 11.7176C14.0005 11.8366 14.7796 11.9556 15.4828 11.9556C17.4736 11.9556 18.5339 11.0576 18.9884 10.5166L18.9126 7.19502C17.333 7.67108 14.6281 8.30944 11.5445 8.30944C10.9927 8.30944 10.4301 8.2878 9.8891 8.24452H9.87828Z" fill="white"/>
<path d="M30.6302 14.8877C30.2732 13.7409 30.2191 12.5074 30.4463 11.2307L27.947 13.7301C27.9686 13.795 27.9145 13.9248 27.9037 14.0546C27.7631 15.6884 29.1588 17.8523 29.8945 18.8585H33.281C31.9719 17.7008 31.0847 16.37 30.6302 14.8877Z" fill="white"/>
<path d="M9.13173 29.267L12.3343 26.0752C12.2261 22.4939 9.09927 21.2497 8.74222 21.1198L6.87044 21.1415C7.58453 22.7752 8.77468 25.8913 9.14255 29.267H9.13173Z" fill="white"/>
<path d="M33.162 21.1415H30.0568C27.2762 22.4506 26.9732 25.2529 26.9624 26.3457L31.3227 29.7214C30.9332 27.8604 30.7925 25.545 31.6365 23.4569C31.9935 22.5913 32.502 21.8123 33.1512 21.1415H33.162Z" fill="white"/>
<path d="M34.5794 7.10847L34.3955 7.38978C32.6319 9.9432 32.0476 12.2586 32.6643 14.271C33.4866 16.9867 36.2997 18.5015 37.1436 18.9018L40.0866 18.8694C39.8269 14.1953 37.9659 9.95402 35.0338 6.67568L34.5902 7.11929L34.5794 7.10847Z" fill="white"/>
<path d="M21.228 32.5778L21.1847 32.9132V34.5469C22.6562 33.1512 25.2096 31.4525 28.9207 31.4525C29.2345 31.4525 29.5591 31.4633 29.8837 31.485L25.3286 27.9578C21.8556 28.3473 21.2605 32.3938 21.2388 32.5669L21.228 32.5778Z" fill="white"/>
<path d="M23.0782 12.2478C23.3487 12.3343 23.6408 12.3776 23.9546 12.3776C25.3178 12.3776 26.7244 11.577 27.1247 11.3281L29.7755 8.67731C28.5312 8.86124 27.3519 8.9478 26.2591 8.9478C24.1926 8.9478 22.4831 8.61239 21.1847 7.95239V10.2461C21.6067 11.274 22.2451 11.9881 23.0782 12.2478Z" fill="white"/>
<path d="M13.5678 27.9362L10.9711 30.6519C12.8645 31.0414 15.5694 32.1666 18.9018 35.1204V31.5824C17.69 28.304 14.9527 27.9362 13.8274 27.9362H13.5678Z" fill="white"/>
<path d="M20.0379 14.511L14.5448 20.0041L20.0379 25.4972L25.531 20.0041L20.0379 14.511Z" fill="white"/>
<path d="M145.091 31.3768L148.488 27.9794L151.885 31.3768C151.983 31.4742 152.156 31.4742 152.253 31.3768C152.351 31.2794 152.351 31.1063 152.253 31.0089L148.672 27.4276C148.672 27.4276 148.553 27.3519 148.488 27.3519C148.423 27.3519 148.347 27.3735 148.304 27.4276L144.723 31.0089C144.625 31.1063 144.625 31.2794 144.723 31.3768C144.82 31.4742 144.993 31.4742 145.091 31.3768Z" fill="white"/>
<path d="M152.102 35.0446H148.769V33.281H151.507C151.647 33.281 151.755 33.162 151.755 33.0322V33.0105C151.755 32.8699 151.636 32.7617 151.507 32.7617H148.769V31.2686H150.316C150.457 31.2686 150.576 31.1496 150.576 31.0089C150.576 30.8683 150.457 30.7493 150.316 30.7493H146.703C146.562 30.7493 146.443 30.8683 146.443 31.0089C146.443 31.1496 146.562 31.2686 146.703 31.2686H148.25V32.7617H145.513C145.372 32.7617 145.264 32.8807 145.264 33.0105V33.0322C145.264 33.1728 145.383 33.281 145.513 33.281H148.25V35.0446H144.917C144.777 35.0446 144.658 35.1636 144.658 35.3043C144.658 35.445 144.777 35.564 144.917 35.564H152.102C152.242 35.564 152.361 35.445 152.361 35.3043C152.361 35.1636 152.242 35.0446 152.102 35.0446Z" fill="white"/>
<path d="M129.24 27.3194C129.099 27.3194 128.98 27.4385 128.98 27.5791V28.6827H126.005C125.864 28.6827 125.745 28.8017 125.745 28.9424V30.4679C125.745 30.6086 125.864 30.7276 126.005 30.7276C126.146 30.7276 126.265 30.6086 126.265 30.4679V29.2021H132.204V30.4679C132.204 30.6086 132.324 30.7276 132.464 30.7276C132.605 30.7276 132.724 30.6086 132.724 30.4679V28.9424C132.724 28.8017 132.605 28.6827 132.464 28.6827H129.489V27.5791C129.489 27.4385 129.37 27.3194 129.229 27.3194H129.24Z" fill="white"/>
<path d="M132.854 31.2037H128.547L129.175 30.1217C129.24 30.0027 129.207 29.8404 129.078 29.7755C128.959 29.6998 128.796 29.743 128.731 29.862L127.952 31.2145H125.572C125.431 31.2145 125.312 31.3335 125.312 31.4742C125.312 31.6256 125.431 31.7338 125.572 31.7338H127.649L126.048 34.5037C126.048 34.5037 126.048 34.5469 126.048 34.5794C126.048 34.601 126.027 34.6118 126.027 34.6335C126.027 34.6443 126.026 34.6551 126.037 34.6659C126.037 34.7092 126.059 34.7309 126.081 34.7741C126.091 34.7958 126.102 34.8174 126.135 34.8391C126.135 34.8391 126.135 34.8607 126.156 34.8715C126.156 34.8715 126.2 34.8715 126.232 34.8823C126.254 34.8823 126.265 34.904 126.286 34.904H128.948L128.591 35.5207C128.515 35.6397 128.558 35.802 128.688 35.8777C128.807 35.9535 128.969 35.9102 129.045 35.7912L129.554 34.9148H132.226C132.367 34.9148 132.486 34.7958 132.486 34.6551C132.486 34.5145 132.367 34.3955 132.226 34.3955H129.857L131.382 31.7555H132.864C133.005 31.7555 133.124 31.6365 133.124 31.4958C133.124 31.3443 133.005 31.2361 132.864 31.2361L132.854 31.2037ZM129.24 34.363H126.73L128.255 31.723H130.765L129.24 34.363Z" fill="white"/>
<path d="M113.476 35.0122H111.701L112.729 29.2021H113.292C113.433 29.2021 113.552 29.083 113.552 28.9424C113.552 28.8017 113.433 28.6827 113.292 28.6827H111.139V27.5899C111.139 27.4493 111.02 27.3303 110.879 27.3303C110.738 27.3303 110.619 27.4493 110.619 27.5899V28.6827H108.466C108.326 28.6827 108.207 28.8017 108.207 28.9424C108.207 29.083 108.326 29.2021 108.466 29.2021H112.199L111.171 35.0122H110.609C110.609 35.0122 110.609 35.0014 110.609 34.9905L109.895 30.9656C109.873 30.825 109.732 30.7276 109.592 30.7493C109.451 30.7709 109.354 30.9115 109.375 31.0522L110.068 35.0014H108.261C108.12 35.0014 108.001 35.1204 108.001 35.261C108.001 35.4017 108.12 35.5207 108.261 35.5207H113.465C113.606 35.5207 113.725 35.4017 113.725 35.261C113.725 35.1204 113.606 35.0014 113.465 35.0014L113.476 35.0122Z" fill="white"/>
<path d="M107.406 27.4817L106.118 30.3489C106.064 30.4788 106.118 30.6411 106.248 30.6952C106.378 30.7493 106.54 30.6952 106.595 30.5653L107.027 29.6132V35.2718C107.027 35.4125 107.146 35.5315 107.287 35.5315C107.428 35.5315 107.547 35.4125 107.547 35.2718V28.4555L107.882 27.6981C107.936 27.5683 107.882 27.406 107.752 27.3519C107.622 27.2978 107.46 27.3519 107.406 27.4817Z" fill="white"/>
<path d="M91.934 28.6394L92.1937 27.6549C92.2261 27.5142 92.1504 27.3735 92.0097 27.3303C91.8691 27.2978 91.7284 27.3735 91.6851 27.5142L90.8737 30.5437C90.8412 30.6843 90.917 30.825 91.0576 30.8683C91.1983 30.9007 91.3389 30.825 91.3822 30.6843L91.7933 29.1588H93.4704L92.4533 31.7879L92.0422 30.9873C91.9773 30.8575 91.815 30.8034 91.6851 30.8683C91.5553 30.9332 91.5012 31.0955 91.5661 31.2253L92.1937 32.4479L91.1225 35.2069C91.0684 35.3368 91.1333 35.4882 91.274 35.5423C91.4147 35.5964 91.5553 35.5315 91.6094 35.3909L92.5183 33.0646L93.73 35.4341C93.795 35.564 93.9573 35.6181 94.0871 35.5532C94.2169 35.4882 94.271 35.3259 94.2061 35.1961L92.7779 32.4047L94.0438 29.1588H94.3468C94.4874 29.1588 94.6064 29.0398 94.6064 28.8991C94.6064 28.7584 94.4874 28.6394 94.3468 28.6394H91.934Z" fill="white"/>
<path d="M88.6665 33.0322L89.0127 32.4263H90.3327C90.4734 32.4263 90.5924 32.3073 90.5924 32.1666V31.1712C90.5924 31.0306 90.4734 30.9115 90.3327 30.9115H89.1317V30.6194H90.3327C90.4734 30.6194 90.5924 30.5004 90.5924 30.3597V29.505H90.7871C90.9278 29.505 91.0468 29.386 91.0468 29.2453C91.0468 29.1047 90.9278 28.9857 90.7871 28.9857H90.5924V28.1309C90.5924 27.9903 90.4734 27.8712 90.3327 27.8712H89.1317V27.6116C89.1317 27.4709 89.0127 27.3519 88.8721 27.3519C88.7314 27.3519 88.6124 27.4709 88.6124 27.6116V27.8712H87.4114C87.2708 27.8712 87.1517 27.9903 87.1517 28.1309V28.9857H86.9462C86.8055 28.9857 86.6865 29.1047 86.6865 29.2453C86.6865 29.386 86.8055 29.505 86.9462 29.505H87.1517V30.3597C87.1517 30.5004 87.2708 30.6194 87.4114 30.6194H88.6124V30.9115H87.4114C87.2708 30.9115 87.1517 31.0306 87.1517 31.1712V32.1666C87.1517 32.3073 87.2708 32.4263 87.4114 32.4263H88.4176L88.0714 33.0322H86.9462C86.8055 33.0322 86.6865 33.1512 86.6865 33.2919C86.6865 33.4325 86.8055 33.5515 86.9462 33.5515H87.7685L87.1517 34.6227C87.1517 34.6227 87.1517 34.6768 87.1517 34.7092C87.1517 34.7309 87.1301 34.7417 87.1301 34.7633C87.1301 34.7633 87.1301 34.785 87.1409 34.7958C87.1409 34.8174 87.1626 34.8391 87.1734 34.8607C87.195 34.904 87.2167 34.9364 87.2491 34.9581C87.2491 34.9581 87.2491 34.9581 87.2491 34.9689C87.2491 34.9689 87.2708 34.9689 87.2816 34.9689C87.314 34.9797 87.3357 35.0122 87.379 35.0122H88.6124L88.5042 35.1961C88.4285 35.3259 88.4717 35.4774 88.6016 35.5532C88.7314 35.6289 88.8829 35.5856 88.9586 35.4558L89.2183 35.0122H90.6248C90.7655 35.0122 90.8845 34.8932 90.8845 34.7525C90.8845 34.601 90.7655 34.4928 90.6248 34.4928H89.5212L90.073 33.5515H90.8088C90.9494 33.5515 91.0684 33.4325 91.0684 33.2919C91.0684 33.1512 90.9494 33.0322 90.8088 33.0322H88.6665ZM90.073 30.0893H89.1317V29.4942H90.073V30.0893ZM90.073 28.3798V28.9748H89.1317V28.3798H90.073ZM87.6711 28.3798H88.6124V28.9748H87.6711V28.3798ZM87.6711 30.0893V29.4942H88.6124V30.0893H87.6711ZM90.073 31.4309V31.9069H89.1317V31.4309H90.073ZM88.6124 31.9069H87.6711V31.4309H88.6124V31.9069ZM88.9045 34.5145H87.8226L88.3744 33.5732H89.4563L88.9045 34.5145Z" fill="white"/>
<path d="M74.9256 28.8991H72.686V27.5899C72.686 27.4493 72.5669 27.3303 72.4263 27.3303C72.2856 27.3303 72.1666 27.4493 72.1666 27.5899V28.8991H69.927C69.7863 28.8991 69.6673 29.0181 69.6673 29.1588C69.6673 29.2994 69.7863 29.4184 69.927 29.4184H72.1666V30.0568H70.3922C70.2515 30.0568 70.1325 30.1758 70.1325 30.3165V35.261C70.1325 35.4017 70.2407 35.5207 70.3922 35.5207C70.5437 35.5207 70.6519 35.4017 70.6519 35.261V33.8545H72.1666V35.261C72.1666 35.4017 72.2856 35.5207 72.4263 35.5207C72.5669 35.5207 72.686 35.4017 72.686 35.261V33.8545H74.2223V35.0014H73.5732C73.4325 35.0014 73.3135 35.1204 73.3135 35.261C73.3135 35.4017 73.4325 35.5207 73.5732 35.5207H74.482C74.6227 35.5207 74.7417 35.4017 74.7417 35.261V30.3165C74.7417 30.1758 74.6335 30.0568 74.482 30.0568H72.686V29.4184H74.9256C75.0663 29.4184 75.1853 29.2994 75.1853 29.1588C75.1853 29.0181 75.0663 28.8991 74.9256 28.8991ZM70.6411 30.587H72.1558V31.6581H70.6411V30.587ZM70.6411 33.3351V32.1883H72.1558V33.3351H70.6411ZM72.686 33.3351V32.1883H74.2223V33.3351H72.686ZM74.2223 30.587V31.6581H72.686V30.587H74.2223Z" fill="white"/>
<path d="M67.9578 27.5683C67.8712 27.4601 67.6981 27.4385 67.5899 27.525C67.4817 27.6116 67.4601 27.7847 67.5467 27.8929L68.9316 29.6348C69.0181 29.743 69.1912 29.7647 69.2994 29.6781C69.4076 29.5916 69.4293 29.4184 69.3427 29.3103L67.9578 27.5683Z" fill="white"/>
<path d="M67.9578 30.4571C67.8712 30.3489 67.6981 30.3273 67.5899 30.4138C67.4817 30.5004 67.4601 30.6735 67.5467 30.7817L68.9316 32.5237C69.0181 32.6319 69.1912 32.6535 69.2994 32.5669C69.4076 32.4804 69.4293 32.3073 69.3427 32.1991L67.9578 30.4571Z" fill="white"/>
<path d="M67.9578 33.3568C67.8712 33.2486 67.6981 33.2269 67.5899 33.3135C67.4817 33.4001 67.4601 33.5732 67.5467 33.6814L68.9316 35.4233C69.0181 35.5315 69.1912 35.5531 69.2994 35.4666C69.4076 35.38 69.4293 35.2069 69.3427 35.0987L67.9578 33.3568Z" fill="white"/>
<path d="M74.3414 28.4339C74.4387 28.3365 74.4387 28.1634 74.3414 28.066L73.6814 27.406C73.584 27.3086 73.4109 27.3086 73.3135 27.406C73.2161 27.5034 73.2161 27.6765 73.3135 27.7739L73.9735 28.4339C74.0709 28.5312 74.244 28.5312 74.3414 28.4339Z" fill="white"/>
<path d="M55.7317 35.0122H53.7517V31.4309H54.9959C55.1366 31.4309 55.2556 31.3119 55.2556 31.1712C55.2556 31.0306 55.1366 30.9115 54.9959 30.9115H53.7517V27.5899C53.7517 27.4493 53.6327 27.3303 53.492 27.3303C53.3514 27.3303 53.2323 27.4493 53.2323 27.5899V30.9115H51.9881C51.8474 30.9115 51.7284 31.0306 51.7284 31.1712C51.7284 31.3119 51.8474 31.4309 51.9881 31.4309H53.2323V35.0122H51.2524C51.1117 35.0122 50.9927 35.1312 50.9927 35.2718C50.9927 35.4125 51.1117 35.5315 51.2524 35.5315H55.7317C55.8723 35.5315 55.9913 35.4125 55.9913 35.2718C55.9913 35.1312 55.8723 35.0122 55.7317 35.0122Z" fill="white"/>
<path d="M51.274 33.0863L50.0298 30.3273H51.1442C51.2848 30.3273 51.4038 30.2083 51.4038 30.0676C51.4038 29.927 51.2848 29.808 51.1442 29.808H50.0081V27.5899C50.0081 27.4493 49.8891 27.3303 49.7484 27.3303C49.6078 27.3303 49.4888 27.4493 49.4888 27.5899V29.808H48.3527C48.2121 29.808 48.093 29.927 48.093 30.0676C48.093 30.2083 48.2121 30.3273 48.3527 30.3273H49.4888C49.4888 30.3273 49.4455 30.3706 49.4347 30.3922L48.1471 33.2594C48.093 33.3892 48.1471 33.5515 48.277 33.6056C48.4068 33.6597 48.5691 33.6056 48.6232 33.4758L49.4888 31.5499V35.2718C49.4888 35.4125 49.6078 35.5315 49.7484 35.5315C49.8891 35.5315 50.0081 35.4125 50.0081 35.2718V31.5499L50.7979 33.3027C50.852 33.4325 51.0143 33.4974 51.1442 33.4325C51.274 33.3676 51.3389 33.2161 51.274 33.0863Z" fill="white"/>
<path d="M135.775 3.48391H122.629C122.25 3.48391 121.926 3.62456 121.645 3.89505C121.363 4.16554 121.233 4.50095 121.233 4.90127C121.233 5.3016 121.374 5.637 121.645 5.90749C121.915 6.17798 122.25 6.31864 122.629 6.31864H127.282C127.433 6.31864 127.509 6.38355 127.509 6.51339V21.2605C127.509 21.7149 127.671 22.1044 127.996 22.4398C128.32 22.7752 128.71 22.9375 129.186 22.9375H129.218C129.673 22.9375 130.062 22.7752 130.398 22.4398C130.733 22.1044 130.895 21.7149 130.895 21.2605V6.52421C130.895 6.39437 130.96 6.32946 131.09 6.32946H135.775C136.175 6.32946 136.511 6.1888 136.781 5.91831C137.052 5.64782 137.192 5.31242 137.192 4.91209C137.192 4.51177 137.052 4.17636 136.781 3.90587C136.511 3.63538 136.175 3.49473 135.775 3.49473V3.48391Z" fill="white"/>
<path d="M150.966 21.6824C152.415 20.6113 153.357 18.4798 153.357 16.6513C153.357 14.8228 152.48 13.0701 151.095 11.9015C150.014 10.9927 148.629 10.4193 147.125 10.4084H141.412V6.3511H149.992C150.782 6.3511 151.42 5.71274 151.42 4.92291C151.42 4.13308 150.782 3.49473 149.992 3.49473H138.556V13.3081C138.556 13.3081 147.2 13.3081 147.233 13.3081C148.877 13.3946 150.197 15.1041 150.197 16.6405C150.197 18.1769 148.942 19.9513 147.363 20.092C147.309 20.092 138.653 20.092 138.62 20.092C137.874 20.1352 137.214 20.7628 137.214 21.5201C137.214 21.5418 137.214 21.5526 137.214 21.5851C137.257 22.3424 137.982 22.9592 138.75 22.9592C138.837 22.9592 147.103 22.9483 147.103 22.9483C148.564 22.9483 149.916 22.4723 150.976 21.6824H150.966Z" fill="white"/>
<path d="M78.4744 5.42061C78.799 5.42061 79.0695 5.15012 79.0695 4.82553C79.0695 4.50095 78.799 4.23046 78.4744 4.23046H65.848C65.5234 4.23046 65.2529 4.50095 65.2529 4.82553V22.3424C65.2529 22.667 65.5234 22.9375 65.848 22.9375H78.4744C78.799 22.9375 79.0695 22.667 79.0695 22.3424C79.0695 22.0179 78.799 21.7474 78.4744 21.7474H66.4431V13.4596H77.7387C78.0416 13.4596 78.2797 13.2107 78.2797 12.9186V12.8104C78.2797 12.5074 78.0308 12.2694 77.7387 12.2694H66.4431V5.42061H78.4744Z" fill="white"/>
<path d="M61.8447 4.23046H45.1826C44.858 4.23046 44.5875 4.50095 44.5875 4.82553C44.5875 5.15012 44.858 5.42061 45.1826 5.42061H52.9186V22.3424C52.9186 22.667 53.1891 22.9375 53.5137 22.9375C53.8382 22.9375 54.1087 22.667 54.1087 22.3424V5.42061H61.8447C62.1693 5.42061 62.4398 5.15012 62.4398 4.82553C62.4398 4.50095 62.1693 4.23046 61.8447 4.23046Z" fill="white"/>
<path d="M91.4796 4.33865C91.3714 4.10062 91.1225 3.98161 90.8737 4.00325C90.6248 3.97079 90.376 4.10062 90.2678 4.33865L81.9908 22.0828C81.8501 22.3857 81.9908 22.7428 82.2829 22.8726C82.5859 23.0133 82.9429 22.8726 83.0728 22.5805L85.7668 16.792H95.9697L98.6638 22.5805C98.8044 22.8834 99.1615 23.0133 99.4536 22.8726C99.7566 22.7319 99.8864 22.3749 99.7457 22.0828L91.4688 4.33865H91.4796ZM86.3295 15.6018L90.8737 5.85339L95.4179 15.6018H86.3295Z" fill="white"/>
<path d="M117.566 3.76521C117.382 3.76521 117.219 3.86259 117.111 3.99243C117.079 4.02488 117.046 4.05734 117.014 4.10062L110.392 15.5694L103.814 4.17636C103.738 3.92751 103.522 3.74358 103.251 3.74358C102.927 3.74358 102.656 4.01407 102.656 4.33865V22.3316C102.656 22.6562 102.927 22.9267 103.251 22.9267C103.576 22.9267 103.846 22.6562 103.846 22.3316V6.6324L109.873 17.0733C109.873 17.0733 109.895 17.0949 109.905 17.1166C109.916 17.1382 109.938 17.1599 109.959 17.1815C109.992 17.214 110.024 17.2572 110.068 17.2789C110.068 17.2789 110.078 17.2897 110.089 17.3005C110.111 17.3113 110.133 17.3113 110.154 17.3222C110.197 17.3438 110.241 17.3546 110.284 17.3654C110.316 17.3654 110.36 17.3654 110.392 17.3654C110.425 17.3654 110.468 17.3654 110.5 17.3654C110.544 17.3654 110.587 17.3438 110.63 17.3222C110.652 17.3222 110.674 17.3222 110.695 17.3005C110.695 17.3005 110.706 17.2897 110.717 17.2789C110.76 17.2572 110.793 17.214 110.825 17.1815C110.847 17.1599 110.857 17.149 110.879 17.1166C110.879 17.1058 110.901 17.0949 110.912 17.0733L116.971 6.57831V22.3641C116.971 22.6887 117.241 22.9592 117.566 22.9592C117.89 22.9592 118.161 22.6887 118.161 22.3641V4.36029C118.161 4.0357 117.89 3.76521 117.566 3.76521Z" fill="white"/>
</svg>
